<mxfile host="Electron" agent="Mozilla/5.0 (Windows NT 10.0; Win64; x64) AppleWebKit/537.36 (KHTML, like Gecko) draw.io/28.1.2 Chrome/138.0.7204.243 Electron/37.4.0 Safari/537.36" version="28.1.2">
  <diagram name="Page-1" id="PnoCztp8pKvzlHmHedLD">
    <mxGraphModel dx="1028" dy="619" grid="1" gridSize="10" guides="1" tooltips="1" connect="1" arrows="1" fold="1" page="1" pageScale="1" pageWidth="850" pageHeight="1100" math="0" shadow="0">
      <root>
        <mxCell id="0" />
        <mxCell id="1" parent="0" />
        <mxCell id="jKp67t0zsbqLv-smfeEz-12" value="" style="group" parent="1" vertex="1" connectable="0">
          <mxGeometry x="40.00499999999998" y="120" width="135" height="526.255" as="geometry" />
        </mxCell>
        <mxCell id="jKp67t0zsbqLv-smfeEz-3" value="" style="rounded=0;whiteSpace=wrap;html=1;rotation=90;fillColor=none;strokeColor=#666666;" parent="jKp67t0zsbqLv-smfeEz-12" vertex="1">
          <mxGeometry x="-180.625" y="210.63" width="496.25" height="135" as="geometry" />
        </mxCell>
        <mxCell id="jKp67t0zsbqLv-smfeEz-5" value="" style="rounded=1;whiteSpace=wrap;html=1;" parent="jKp67t0zsbqLv-smfeEz-12" vertex="1">
          <mxGeometry x="7.50500000000001" width="120" height="60" as="geometry" />
        </mxCell>
        <mxCell id="jKp67t0zsbqLv-smfeEz-6" value="&lt;b&gt;&lt;font style=&quot;color: rgb(255, 0, 0);&quot;&gt;SOURCE&lt;/font&gt;&lt;/b&gt;" style="text;html=1;align=center;verticalAlign=middle;whiteSpace=wrap;rounded=0;" parent="jKp67t0zsbqLv-smfeEz-12" vertex="1">
          <mxGeometry x="37.50500000000001" y="15" width="60" height="30" as="geometry" />
        </mxCell>
        <mxCell id="jKp67t0zsbqLv-smfeEz-51" style="edgeStyle=orthogonalEdgeStyle;rounded=0;orthogonalLoop=1;jettySize=auto;html=1;" parent="jKp67t0zsbqLv-smfeEz-12" source="jKp67t0zsbqLv-smfeEz-7" edge="1">
          <mxGeometry relative="1" as="geometry">
            <mxPoint x="249.995" y="158" as="targetPoint" />
          </mxGeometry>
        </mxCell>
        <mxCell id="jKp67t0zsbqLv-smfeEz-7" value="" style="image;aspect=fixed;html=1;points=[];align=center;fontSize=12;image=img/lib/azure2/general/Folder_Blank.svg;" parent="jKp67t0zsbqLv-smfeEz-12" vertex="1">
          <mxGeometry x="32.99500000000001" y="130" width="69" height="56.00000000000001" as="geometry" />
        </mxCell>
        <mxCell id="jKp67t0zsbqLv-smfeEz-9" value="" style="image;aspect=fixed;html=1;points=[];align=center;fontSize=12;image=img/lib/azure2/general/Folder_Blank.svg;" parent="jKp67t0zsbqLv-smfeEz-12" vertex="1">
          <mxGeometry x="28.50500000000001" y="345.63" width="69" height="56.00000000000001" as="geometry" />
        </mxCell>
        <mxCell id="jKp67t0zsbqLv-smfeEz-10" value="ERP" style="text;html=1;align=center;verticalAlign=middle;whiteSpace=wrap;rounded=0;" parent="jKp67t0zsbqLv-smfeEz-12" vertex="1">
          <mxGeometry x="33.00500000000001" y="401.63" width="60" height="30" as="geometry" />
        </mxCell>
        <mxCell id="jKp67t0zsbqLv-smfeEz-11" value="CRM" style="text;html=1;align=center;verticalAlign=middle;whiteSpace=wrap;rounded=0;" parent="jKp67t0zsbqLv-smfeEz-12" vertex="1">
          <mxGeometry x="37.50500000000001" y="186" width="60" height="30" as="geometry" />
        </mxCell>
        <mxCell id="jKp67t0zsbqLv-smfeEz-13" value="" style="rounded=0;whiteSpace=wrap;html=1;direction=south;fillColor=#FAC359;strokeColor=#b46504;fillStyle=auto;" parent="1" vertex="1">
          <mxGeometry x="275" y="160" width="150" height="476.26" as="geometry" />
        </mxCell>
        <mxCell id="jKp67t0zsbqLv-smfeEz-14" value="" style="rounded=1;whiteSpace=wrap;html=1;fillColor=#fad7ac;strokeColor=#b46504;" parent="1" vertex="1">
          <mxGeometry x="290" y="130" width="120" height="60" as="geometry" />
        </mxCell>
        <mxCell id="jKp67t0zsbqLv-smfeEz-23" value="&lt;font style=&quot;font-size: 15px; color: rgb(255, 128, 0);&quot;&gt;Bronz Layer&lt;/font&gt;" style="text;html=1;align=center;verticalAlign=middle;whiteSpace=wrap;rounded=0;" parent="1" vertex="1">
          <mxGeometry x="320" y="145" width="60" height="30" as="geometry" />
        </mxCell>
        <mxCell id="jKp67t0zsbqLv-smfeEz-28" value="" style="group" parent="1" vertex="1" connectable="0">
          <mxGeometry x="290" y="210" width="120" height="30" as="geometry" />
        </mxCell>
        <mxCell id="jKp67t0zsbqLv-smfeEz-24" value="" style="rounded=1;whiteSpace=wrap;html=1;fillColor=#ffe6cc;strokeColor=#d79b00;" parent="jKp67t0zsbqLv-smfeEz-28" vertex="1">
          <mxGeometry width="120" height="30" as="geometry" />
        </mxCell>
        <mxCell id="jKp67t0zsbqLv-smfeEz-25" value="crm_sales_details" style="text;html=1;align=center;verticalAlign=middle;whiteSpace=wrap;rounded=0;" parent="jKp67t0zsbqLv-smfeEz-28" vertex="1">
          <mxGeometry x="25" width="60" height="30" as="geometry" />
        </mxCell>
        <mxCell id="jKp67t0zsbqLv-smfeEz-29" value="" style="group" parent="1" vertex="1" connectable="0">
          <mxGeometry x="290" y="420" width="120" height="30" as="geometry" />
        </mxCell>
        <mxCell id="jKp67t0zsbqLv-smfeEz-30" value="" style="rounded=1;whiteSpace=wrap;html=1;fillColor=#ffe6cc;strokeColor=#d79b00;" parent="jKp67t0zsbqLv-smfeEz-29" vertex="1">
          <mxGeometry width="120" height="30" as="geometry" />
        </mxCell>
        <mxCell id="jKp67t0zsbqLv-smfeEz-31" value="erp_cust_az12" style="text;html=1;align=center;verticalAlign=middle;whiteSpace=wrap;rounded=0;" parent="jKp67t0zsbqLv-smfeEz-29" vertex="1">
          <mxGeometry x="25" width="60" height="30" as="geometry" />
        </mxCell>
        <mxCell id="jKp67t0zsbqLv-smfeEz-32" value="" style="group" parent="1" vertex="1" connectable="0">
          <mxGeometry x="290" y="310" width="120" height="30" as="geometry" />
        </mxCell>
        <mxCell id="jKp67t0zsbqLv-smfeEz-33" value="" style="rounded=1;whiteSpace=wrap;html=1;fillColor=#ffe6cc;strokeColor=#d79b00;" parent="jKp67t0zsbqLv-smfeEz-32" vertex="1">
          <mxGeometry width="120" height="30" as="geometry" />
        </mxCell>
        <mxCell id="jKp67t0zsbqLv-smfeEz-34" value="crm_prd_info" style="text;html=1;align=center;verticalAlign=middle;whiteSpace=wrap;rounded=0;" parent="jKp67t0zsbqLv-smfeEz-32" vertex="1">
          <mxGeometry x="25" width="60" height="30" as="geometry" />
        </mxCell>
        <mxCell id="jKp67t0zsbqLv-smfeEz-35" value="" style="group" parent="1" vertex="1" connectable="0">
          <mxGeometry x="290" y="260" width="120" height="30" as="geometry" />
        </mxCell>
        <mxCell id="jKp67t0zsbqLv-smfeEz-36" value="" style="rounded=1;whiteSpace=wrap;html=1;fillColor=#ffe6cc;strokeColor=#d79b00;" parent="jKp67t0zsbqLv-smfeEz-35" vertex="1">
          <mxGeometry width="120" height="30" as="geometry" />
        </mxCell>
        <mxCell id="jKp67t0zsbqLv-smfeEz-37" value="crm_cust_info" style="text;html=1;align=center;verticalAlign=middle;whiteSpace=wrap;rounded=0;" parent="jKp67t0zsbqLv-smfeEz-35" vertex="1">
          <mxGeometry x="25" width="60" height="30" as="geometry" />
        </mxCell>
        <mxCell id="jKp67t0zsbqLv-smfeEz-38" value="" style="group" parent="1" vertex="1" connectable="0">
          <mxGeometry x="290" y="470" width="120" height="30" as="geometry" />
        </mxCell>
        <mxCell id="jKp67t0zsbqLv-smfeEz-39" value="" style="rounded=1;whiteSpace=wrap;html=1;fillColor=#ffe6cc;strokeColor=#d79b00;" parent="jKp67t0zsbqLv-smfeEz-38" vertex="1">
          <mxGeometry width="120" height="30" as="geometry" />
        </mxCell>
        <mxCell id="jKp67t0zsbqLv-smfeEz-40" value="erp_loc_a101" style="text;html=1;align=center;verticalAlign=middle;whiteSpace=wrap;rounded=0;" parent="jKp67t0zsbqLv-smfeEz-38" vertex="1">
          <mxGeometry x="25" width="60" height="30" as="geometry" />
        </mxCell>
        <mxCell id="jKp67t0zsbqLv-smfeEz-41" value="" style="group" parent="1" vertex="1" connectable="0">
          <mxGeometry x="290" y="535" width="120" height="30" as="geometry" />
        </mxCell>
        <mxCell id="jKp67t0zsbqLv-smfeEz-42" value="" style="rounded=1;whiteSpace=wrap;html=1;fillColor=#ffe6cc;strokeColor=#d79b00;" parent="jKp67t0zsbqLv-smfeEz-41" vertex="1">
          <mxGeometry width="120" height="30" as="geometry" />
        </mxCell>
        <mxCell id="jKp67t0zsbqLv-smfeEz-43" value="erp_px_cat_g1v2" style="text;html=1;align=center;verticalAlign=middle;whiteSpace=wrap;rounded=0;" parent="jKp67t0zsbqLv-smfeEz-41" vertex="1">
          <mxGeometry x="25" width="60" height="30" as="geometry" />
        </mxCell>
        <mxCell id="jKp67t0zsbqLv-smfeEz-45" style="edgeStyle=orthogonalEdgeStyle;rounded=0;orthogonalLoop=1;jettySize=auto;html=1;entryX=0.129;entryY=1.025;entryDx=0;entryDy=0;entryPerimeter=0;" parent="1" source="jKp67t0zsbqLv-smfeEz-7" target="jKp67t0zsbqLv-smfeEz-13" edge="1">
          <mxGeometry relative="1" as="geometry" />
        </mxCell>
        <mxCell id="jKp67t0zsbqLv-smfeEz-46" style="edgeStyle=orthogonalEdgeStyle;rounded=0;orthogonalLoop=1;jettySize=auto;html=1;entryX=0.361;entryY=0.977;entryDx=0;entryDy=0;entryPerimeter=0;" parent="1" source="jKp67t0zsbqLv-smfeEz-7" target="jKp67t0zsbqLv-smfeEz-13" edge="1">
          <mxGeometry relative="1" as="geometry" />
        </mxCell>
        <mxCell id="jKp67t0zsbqLv-smfeEz-49" style="edgeStyle=orthogonalEdgeStyle;rounded=0;orthogonalLoop=1;jettySize=auto;html=1;entryX=0;entryY=0.5;entryDx=0;entryDy=0;" parent="1" source="jKp67t0zsbqLv-smfeEz-9" target="jKp67t0zsbqLv-smfeEz-30" edge="1">
          <mxGeometry relative="1" as="geometry" />
        </mxCell>
        <mxCell id="jKp67t0zsbqLv-smfeEz-50" style="edgeStyle=orthogonalEdgeStyle;rounded=0;orthogonalLoop=1;jettySize=auto;html=1;entryX=0;entryY=0.5;entryDx=0;entryDy=0;" parent="1" source="jKp67t0zsbqLv-smfeEz-9" target="jKp67t0zsbqLv-smfeEz-42" edge="1">
          <mxGeometry relative="1" as="geometry" />
        </mxCell>
        <mxCell id="jKp67t0zsbqLv-smfeEz-48" style="edgeStyle=orthogonalEdgeStyle;rounded=0;orthogonalLoop=1;jettySize=auto;html=1;entryX=0;entryY=0.75;entryDx=0;entryDy=0;" parent="1" source="jKp67t0zsbqLv-smfeEz-9" target="jKp67t0zsbqLv-smfeEz-39" edge="1">
          <mxGeometry relative="1" as="geometry">
            <mxPoint x="290" y="500" as="targetPoint" />
          </mxGeometry>
        </mxCell>
        <mxCell id="7_S5bwInGsD9jQ6_dKin-1" value="" style="rounded=0;whiteSpace=wrap;html=1;direction=south;fillColor=#f5f5f5;fillStyle=hatch;strokeColor=#666666;gradientColor=#b3b3b3;" parent="1" vertex="1">
          <mxGeometry x="520" y="160" width="150" height="476.26" as="geometry" />
        </mxCell>
        <mxCell id="MHOr6VKxFSOh24FiYQNK-1" value="" style="rounded=0;whiteSpace=wrap;html=1;direction=south;fillColor=default;fillStyle=hatch;strokeColor=#d6b656;gradientColor=#ffd966;gradientDirection=south;" vertex="1" parent="1">
          <mxGeometry x="780" y="160" width="150" height="476.26" as="geometry" />
        </mxCell>
        <mxCell id="7_S5bwInGsD9jQ6_dKin-2" value="" style="rounded=1;whiteSpace=wrap;html=1;fillColor=#f5f5f5;strokeColor=#666666;gradientColor=#b3b3b3;" parent="1" vertex="1">
          <mxGeometry x="535" y="130" width="120" height="60" as="geometry" />
        </mxCell>
        <mxCell id="MHOr6VKxFSOh24FiYQNK-2" value="" style="rounded=1;whiteSpace=wrap;html=1;fillColor=#fff2cc;strokeColor=#d6b656;gradientColor=#ffd966;" vertex="1" parent="1">
          <mxGeometry x="795" y="130" width="120" height="60" as="geometry" />
        </mxCell>
        <mxCell id="7_S5bwInGsD9jQ6_dKin-3" value="&lt;font color=&quot;#ff8000&quot;&gt;&lt;span style=&quot;font-size: 15px;&quot;&gt;Silver Layer&lt;/span&gt;&lt;/font&gt;" style="text;html=1;align=center;verticalAlign=middle;whiteSpace=wrap;rounded=0;" parent="1" vertex="1">
          <mxGeometry x="565" y="145" width="60" height="30" as="geometry" />
        </mxCell>
        <mxCell id="MHOr6VKxFSOh24FiYQNK-3" value="&lt;font color=&quot;#ff8000&quot;&gt;&lt;span style=&quot;font-size: 15px;&quot;&gt;Gold Layer&lt;/span&gt;&lt;/font&gt;" style="text;html=1;align=center;verticalAlign=middle;whiteSpace=wrap;rounded=0;fillColor=#fff2cc;strokeColor=#d6b656;" vertex="1" parent="1">
          <mxGeometry x="825" y="145" width="60" height="30" as="geometry" />
        </mxCell>
        <mxCell id="7_S5bwInGsD9jQ6_dKin-4" value="" style="group;fillColor=#bac8d3;strokeColor=#23445d;" parent="1" vertex="1" connectable="0">
          <mxGeometry x="535" y="210" width="120" height="30" as="geometry" />
        </mxCell>
        <mxCell id="7_S5bwInGsD9jQ6_dKin-5" value="" style="rounded=1;whiteSpace=wrap;html=1;fillColor=#b1ddf0;strokeColor=#10739e;" parent="7_S5bwInGsD9jQ6_dKin-4" vertex="1">
          <mxGeometry width="120" height="30" as="geometry" />
        </mxCell>
        <mxCell id="7_S5bwInGsD9jQ6_dKin-6" value="crm_sales_details" style="text;html=1;align=center;verticalAlign=middle;whiteSpace=wrap;rounded=0;" parent="7_S5bwInGsD9jQ6_dKin-4" vertex="1">
          <mxGeometry x="25" width="60" height="30" as="geometry" />
        </mxCell>
        <mxCell id="MHOr6VKxFSOh24FiYQNK-4" value="" style="group;fillColor=#ffcd28;gradientColor=#ffa500;strokeColor=#d79b00;" vertex="1" connectable="0" parent="1">
          <mxGeometry x="795" y="250" width="120" height="30" as="geometry" />
        </mxCell>
        <mxCell id="MHOr6VKxFSOh24FiYQNK-5" value="" style="rounded=1;whiteSpace=wrap;html=1;fillColor=#ffcd28;strokeColor=#d79b00;gradientColor=#ffa500;" vertex="1" parent="MHOr6VKxFSOh24FiYQNK-4">
          <mxGeometry width="120" height="30" as="geometry" />
        </mxCell>
        <mxCell id="MHOr6VKxFSOh24FiYQNK-6" value="fact_sales" style="text;html=1;align=center;verticalAlign=middle;whiteSpace=wrap;rounded=0;" vertex="1" parent="MHOr6VKxFSOh24FiYQNK-4">
          <mxGeometry x="25" width="60" height="30" as="geometry" />
        </mxCell>
        <mxCell id="7_S5bwInGsD9jQ6_dKin-7" value="" style="group" parent="1" vertex="1" connectable="0">
          <mxGeometry x="535" y="420" width="120" height="30" as="geometry" />
        </mxCell>
        <mxCell id="7_S5bwInGsD9jQ6_dKin-8" value="" style="rounded=1;whiteSpace=wrap;html=1;fillColor=#b1ddf0;strokeColor=#10739e;" parent="7_S5bwInGsD9jQ6_dKin-7" vertex="1">
          <mxGeometry width="120" height="30" as="geometry" />
        </mxCell>
        <mxCell id="7_S5bwInGsD9jQ6_dKin-9" value="erp_cust_az12" style="text;html=1;align=center;verticalAlign=middle;whiteSpace=wrap;rounded=0;" parent="7_S5bwInGsD9jQ6_dKin-7" vertex="1">
          <mxGeometry x="25" width="60" height="30" as="geometry" />
        </mxCell>
        <mxCell id="7_S5bwInGsD9jQ6_dKin-10" value="" style="group" parent="1" vertex="1" connectable="0">
          <mxGeometry x="535" y="310" width="120" height="30" as="geometry" />
        </mxCell>
        <mxCell id="7_S5bwInGsD9jQ6_dKin-11" value="" style="rounded=1;whiteSpace=wrap;html=1;fillColor=#b1ddf0;strokeColor=#10739e;" parent="7_S5bwInGsD9jQ6_dKin-10" vertex="1">
          <mxGeometry width="120" height="30" as="geometry" />
        </mxCell>
        <mxCell id="7_S5bwInGsD9jQ6_dKin-12" value="crm_Prd_info" style="text;html=1;align=center;verticalAlign=middle;whiteSpace=wrap;rounded=0;" parent="7_S5bwInGsD9jQ6_dKin-10" vertex="1">
          <mxGeometry x="25" width="60" height="30" as="geometry" />
        </mxCell>
        <mxCell id="MHOr6VKxFSOh24FiYQNK-10" value="" style="group" vertex="1" connectable="0" parent="1">
          <mxGeometry x="795" y="430" width="120" height="30" as="geometry" />
        </mxCell>
        <mxCell id="MHOr6VKxFSOh24FiYQNK-11" value="" style="rounded=1;whiteSpace=wrap;html=1;fillColor=#ffcd28;strokeColor=#d79b00;gradientColor=#ffa500;" vertex="1" parent="MHOr6VKxFSOh24FiYQNK-10">
          <mxGeometry width="120" height="30" as="geometry" />
        </mxCell>
        <mxCell id="MHOr6VKxFSOh24FiYQNK-12" value="dim_products" style="text;html=1;align=center;verticalAlign=middle;whiteSpace=wrap;rounded=0;" vertex="1" parent="MHOr6VKxFSOh24FiYQNK-10">
          <mxGeometry x="25" width="60" height="30" as="geometry" />
        </mxCell>
        <mxCell id="7_S5bwInGsD9jQ6_dKin-13" value="" style="group;fillColor=#b1ddf0;strokeColor=#10739e;" parent="1" vertex="1" connectable="0">
          <mxGeometry x="535" y="260" width="120" height="30" as="geometry" />
        </mxCell>
        <mxCell id="7_S5bwInGsD9jQ6_dKin-14" value="" style="rounded=1;whiteSpace=wrap;html=1;fillColor=#b1ddf0;strokeColor=#10739e;" parent="7_S5bwInGsD9jQ6_dKin-13" vertex="1">
          <mxGeometry width="120" height="30" as="geometry" />
        </mxCell>
        <mxCell id="7_S5bwInGsD9jQ6_dKin-15" value="crm_cust_info" style="text;html=1;align=center;verticalAlign=middle;whiteSpace=wrap;rounded=0;" parent="7_S5bwInGsD9jQ6_dKin-13" vertex="1">
          <mxGeometry x="25" width="60" height="30" as="geometry" />
        </mxCell>
        <mxCell id="MHOr6VKxFSOh24FiYQNK-13" value="" style="group" vertex="1" connectable="0" parent="1">
          <mxGeometry x="795" y="340" width="120" height="30" as="geometry" />
        </mxCell>
        <mxCell id="MHOr6VKxFSOh24FiYQNK-14" value="" style="rounded=1;whiteSpace=wrap;html=1;fillColor=#ffcd28;strokeColor=#d79b00;gradientColor=#ffa500;" vertex="1" parent="MHOr6VKxFSOh24FiYQNK-13">
          <mxGeometry width="120" height="30" as="geometry" />
        </mxCell>
        <mxCell id="MHOr6VKxFSOh24FiYQNK-15" value="dim_customers" style="text;html=1;align=center;verticalAlign=middle;whiteSpace=wrap;rounded=0;" vertex="1" parent="MHOr6VKxFSOh24FiYQNK-13">
          <mxGeometry x="25" width="60" height="30" as="geometry" />
        </mxCell>
        <mxCell id="7_S5bwInGsD9jQ6_dKin-16" value="" style="group" parent="1" vertex="1" connectable="0">
          <mxGeometry x="535" y="470" width="120" height="30" as="geometry" />
        </mxCell>
        <mxCell id="7_S5bwInGsD9jQ6_dKin-17" value="" style="rounded=1;whiteSpace=wrap;html=1;fillColor=#b1ddf0;strokeColor=#10739e;" parent="7_S5bwInGsD9jQ6_dKin-16" vertex="1">
          <mxGeometry width="120" height="30" as="geometry" />
        </mxCell>
        <mxCell id="7_S5bwInGsD9jQ6_dKin-18" value="erp_loc_a101" style="text;html=1;align=center;verticalAlign=middle;whiteSpace=wrap;rounded=0;" parent="7_S5bwInGsD9jQ6_dKin-16" vertex="1">
          <mxGeometry x="25" width="60" height="30" as="geometry" />
        </mxCell>
        <mxCell id="7_S5bwInGsD9jQ6_dKin-19" value="" style="group;fillColor=#b1ddf0;strokeColor=#10739e;" parent="1" vertex="1" connectable="0">
          <mxGeometry x="535" y="535" width="120" height="30" as="geometry" />
        </mxCell>
        <mxCell id="7_S5bwInGsD9jQ6_dKin-20" value="" style="rounded=1;whiteSpace=wrap;html=1;fillColor=#b1ddf0;strokeColor=#10739e;" parent="7_S5bwInGsD9jQ6_dKin-19" vertex="1">
          <mxGeometry width="120" height="30" as="geometry" />
        </mxCell>
        <mxCell id="7_S5bwInGsD9jQ6_dKin-21" value="erp_px_cat_g1v2" style="text;html=1;align=center;verticalAlign=middle;whiteSpace=wrap;rounded=0;" parent="7_S5bwInGsD9jQ6_dKin-19" vertex="1">
          <mxGeometry x="25" width="60" height="30" as="geometry" />
        </mxCell>
        <mxCell id="7_S5bwInGsD9jQ6_dKin-22" style="edgeStyle=orthogonalEdgeStyle;rounded=0;orthogonalLoop=1;jettySize=auto;html=1;" parent="1" source="jKp67t0zsbqLv-smfeEz-24" target="7_S5bwInGsD9jQ6_dKin-5" edge="1">
          <mxGeometry relative="1" as="geometry" />
        </mxCell>
        <mxCell id="7_S5bwInGsD9jQ6_dKin-23" style="edgeStyle=orthogonalEdgeStyle;rounded=0;orthogonalLoop=1;jettySize=auto;html=1;entryX=0;entryY=0.5;entryDx=0;entryDy=0;" parent="1" source="jKp67t0zsbqLv-smfeEz-36" target="7_S5bwInGsD9jQ6_dKin-14" edge="1">
          <mxGeometry relative="1" as="geometry" />
        </mxCell>
        <mxCell id="7_S5bwInGsD9jQ6_dKin-24" style="edgeStyle=orthogonalEdgeStyle;rounded=0;orthogonalLoop=1;jettySize=auto;html=1;entryX=0;entryY=0.5;entryDx=0;entryDy=0;" parent="1" source="jKp67t0zsbqLv-smfeEz-33" target="7_S5bwInGsD9jQ6_dKin-11" edge="1">
          <mxGeometry relative="1" as="geometry" />
        </mxCell>
        <mxCell id="7_S5bwInGsD9jQ6_dKin-25" style="edgeStyle=orthogonalEdgeStyle;rounded=0;orthogonalLoop=1;jettySize=auto;html=1;entryX=0;entryY=0.5;entryDx=0;entryDy=0;" parent="1" source="jKp67t0zsbqLv-smfeEz-30" target="7_S5bwInGsD9jQ6_dKin-8" edge="1">
          <mxGeometry relative="1" as="geometry" />
        </mxCell>
        <mxCell id="7_S5bwInGsD9jQ6_dKin-26" style="edgeStyle=orthogonalEdgeStyle;rounded=0;orthogonalLoop=1;jettySize=auto;html=1;entryX=0;entryY=0.5;entryDx=0;entryDy=0;" parent="1" source="jKp67t0zsbqLv-smfeEz-39" target="7_S5bwInGsD9jQ6_dKin-17" edge="1">
          <mxGeometry relative="1" as="geometry" />
        </mxCell>
        <mxCell id="7_S5bwInGsD9jQ6_dKin-27" style="edgeStyle=orthogonalEdgeStyle;rounded=0;orthogonalLoop=1;jettySize=auto;html=1;entryX=0;entryY=0.5;entryDx=0;entryDy=0;" parent="1" source="jKp67t0zsbqLv-smfeEz-42" target="7_S5bwInGsD9jQ6_dKin-20" edge="1">
          <mxGeometry relative="1" as="geometry" />
        </mxCell>
        <mxCell id="MHOr6VKxFSOh24FiYQNK-23" value="" style="endArrow=classic;html=1;rounded=0;exitX=1;exitY=0.5;exitDx=0;exitDy=0;entryX=0;entryY=0.5;entryDx=0;entryDy=0;jumpStyle=gap;" edge="1" parent="1" source="7_S5bwInGsD9jQ6_dKin-5" target="MHOr6VKxFSOh24FiYQNK-5">
          <mxGeometry width="50" height="50" relative="1" as="geometry">
            <mxPoint x="680" y="240" as="sourcePoint" />
            <mxPoint x="730" y="190" as="targetPoint" />
          </mxGeometry>
        </mxCell>
        <mxCell id="MHOr6VKxFSOh24FiYQNK-24" value="" style="endArrow=classic;html=1;rounded=0;exitX=1;exitY=0.5;exitDx=0;exitDy=0;entryX=0;entryY=0.5;entryDx=0;entryDy=0;jumpStyle=gap;" edge="1" parent="1" source="7_S5bwInGsD9jQ6_dKin-14" target="MHOr6VKxFSOh24FiYQNK-14">
          <mxGeometry width="50" height="50" relative="1" as="geometry">
            <mxPoint x="655" y="270" as="sourcePoint" />
            <mxPoint x="795" y="310" as="targetPoint" />
            <Array as="points" />
          </mxGeometry>
        </mxCell>
        <mxCell id="MHOr6VKxFSOh24FiYQNK-25" value="" style="endArrow=classic;html=1;rounded=0;exitX=1;exitY=0.5;exitDx=0;exitDy=0;entryX=0;entryY=0.75;entryDx=0;entryDy=0;jumpStyle=gap;" edge="1" parent="1" target="MHOr6VKxFSOh24FiYQNK-14">
          <mxGeometry width="50" height="50" relative="1" as="geometry">
            <mxPoint x="655" y="485" as="sourcePoint" />
            <mxPoint x="795" y="565" as="targetPoint" />
            <Array as="points" />
          </mxGeometry>
        </mxCell>
        <mxCell id="MHOr6VKxFSOh24FiYQNK-26" value="" style="endArrow=classic;html=1;rounded=0;exitX=1;exitY=0.5;exitDx=0;exitDy=0;entryX=0;entryY=0.75;entryDx=0;entryDy=0;jumpStyle=gap;" edge="1" parent="1" target="MHOr6VKxFSOh24FiYQNK-14">
          <mxGeometry width="50" height="50" relative="1" as="geometry">
            <mxPoint x="650" y="430" as="sourcePoint" />
            <mxPoint x="790" y="510" as="targetPoint" />
            <Array as="points" />
          </mxGeometry>
        </mxCell>
        <mxCell id="MHOr6VKxFSOh24FiYQNK-27" value="" style="endArrow=classic;html=1;rounded=0;exitX=1;exitY=0.5;exitDx=0;exitDy=0;entryX=0;entryY=0.5;entryDx=0;entryDy=0;jumpStyle=gap;" edge="1" parent="1" target="MHOr6VKxFSOh24FiYQNK-11">
          <mxGeometry width="50" height="50" relative="1" as="geometry">
            <mxPoint x="655" y="326" as="sourcePoint" />
            <mxPoint x="795" y="204" as="targetPoint" />
            <Array as="points" />
          </mxGeometry>
        </mxCell>
        <mxCell id="MHOr6VKxFSOh24FiYQNK-28" value="" style="endArrow=classic;html=1;rounded=0;exitX=1;exitY=0.5;exitDx=0;exitDy=0;entryX=0;entryY=0.5;entryDx=0;entryDy=0;jumpStyle=gap;" edge="1" parent="1" target="MHOr6VKxFSOh24FiYQNK-11">
          <mxGeometry width="50" height="50" relative="1" as="geometry">
            <mxPoint x="655" y="562" as="sourcePoint" />
            <mxPoint x="800" y="450" as="targetPoint" />
            <Array as="points" />
          </mxGeometry>
        </mxCell>
      </root>
    </mxGraphModel>
  </diagram>
</mxfile>
